<svg width="512" height="384" viewBox="0 0 512 384" fill="none" xmlns="http://www.w3.org/2000/svg">
<path d="M5.96374 99.7166C5.96374 99.7166 -12.2557 300.922 14.9958 357.318C63.0812 404.406 439.503 378.554 475.632 360.088C502.728 346.238 511.69 277.94 511.69 277.94C377.363 324.604 261.873 349.008 261.873 349.008C325.953 332.164 361.225 315.769 361.225 315.769C283.383 290.505 287.511 220.091 352.193 193.893C416.875 167.695 505.599 156.341 505.599 156.341C506.021 94.2894 484.912 83.6924 427.46 88.637V144.035H466.599C255.086 200.434 147.964 207.405 51.1241 138.495L141.445 88.6369C141.445 88.6369 33.06 80.3273 5.96374 99.7166Z" fill="white"/>
<path d="M249.83 41.5486L69.1883 138.495L249.83 60.9379L291.98 88.6369L373.268 36.0087L385.311 47.0884L409.397 0L343.161 8.30971L361.225 27.699L291.98 72.0175L249.83 41.5486Z" fill="white"/>
<path fill-rule="evenodd" clip-rule="evenodd" d="M213.701 177.274V88.637C213.701 88.637 255.845 63.6945 264.883 88.637V174.504L213.701 177.274Z" fill="white"/>
<path fill-rule="evenodd" clip-rule="evenodd" d="M285.958 99.7166L286.303 170.817L337.14 163.424V99.7166C338.521 83.2938 337.14 66.5897 319.806 83.9609C307.623 92.6465 298.848 97.74 285.958 99.7166Z" fill="white"/>
<path fill-rule="evenodd" clip-rule="evenodd" d="M358.215 69.4849V157.885C358.215 157.885 391.959 154.728 412.407 144.035V46.3232C402.681 48.8798 389.859 66.5897 377.676 55.0089C365.514 52.2346 358.192 61.8926 358.215 69.4849Z" fill="white"/>
<path fill-rule="evenodd" clip-rule="evenodd" d="M135.423 168.964V124.494C189.616 99.7166 189.616 88.637 189.616 132.955V177.274C189.616 177.274 153.12 177.133 135.423 168.964Z" fill="white"/>
<path fill-rule="evenodd" clip-rule="evenodd" d="M350.368 204.801C373.985 193.021 455.688 169.589 505.599 167.922C505.599 167.922 513.659 209.475 511.69 266.359C511.69 266.359 415.83 305.739 367.043 304.69C318.255 303.641 292.951 242.57 350.368 204.801ZM378.924 232.528C366.731 232.528 356.847 241.924 356.847 253.515V254.429C356.847 266.019 366.731 275.415 378.924 275.415C391.117 275.415 401.002 266.019 401.002 254.429V253.515C401.002 241.924 391.117 232.528 378.924 232.528Z" fill="white"/>
</svg>
